<svg width="18" height="18" viewBox="0 0 18 18" fill="none" xmlns="http://www.w3.org/2000/svg">
<path d="M16.0719 0H1.92812C0.864022 0 0 0.864022 0 1.92812V16.0719C0 17.1369 0.864022 18 1.92812 18H16.0719C17.1369 18 18 17.136 18 16.0719V1.92812C18.0009 0.864022 17.1369 0 16.0719 0ZM16.7152 16.0719C16.7152 16.4254 16.4254 16.7152 16.0719 16.7152H1.92812C1.57462 16.7152 1.28571 16.4254 1.28571 16.0719V1.92812C1.28571 1.57462 1.57462 1.28571 1.92812 1.28571H16.0719C16.4254 1.28571 16.7152 1.57462 16.7152 1.92812V16.0719ZM9.80839 3.85266H6.10737C5.93061 3.85266 5.78616 3.99801 5.78616 4.17386V13.8172C5.78616 13.9939 5.93061 14.1384 6.10737 14.1384H6.74978C6.92653 14.1384 7.07098 13.9939 7.07098 13.8172V10.9245H9.96361C12.0299 10.9245 13.6889 9.14445 13.4843 7.03509C13.3075 5.19938 11.6558 3.85266 9.80839 3.85266ZM9.96361 9.64331H7.07098V5.14286H9.96361C11.2063 5.14286 12.2138 6.15133 12.2138 7.39308C12.2138 8.63483 11.2063 9.64331 9.96361 9.64331Z" fill="#5692D9"/>
</svg>
