<svg width="18" height="18" viewBox="0 0 18 18" fill="none" xmlns="http://www.w3.org/2000/svg">
<path d="M15 8H18V10C18 12.3361 16.3979 14.298 14.2325 14.847L14.9472 16.2764C15.0707 16.5234 14.9706 16.8237 14.7236 16.9472C14.4766 17.0707 14.1763 16.9706 14.0528 16.7236L13.191 15H4.80902L3.94721 16.7236C3.82372 16.9706 3.52338 17.0707 3.27639 16.9472C3.0294 16.8237 2.92929 16.5234 3.05279 16.2764L3.76751 14.847C1.6021 14.298 0 12.3361 0 10V8H14V2.47293C14 1.65945 13.3405 1 12.5271 1C11.7093 1 11.0444 1.6593 11.0375 2.47707L11.0331 3.00421C11.0307 3.28034 10.805 3.50231 10.5289 3.49998C10.2527 3.49766 10.0308 3.27192 10.0331 2.99579L10.0375 2.46865C10.0491 1.1019 11.1603 0 12.5271 0C13.8928 0 15 1.10717 15 2.47293V8ZM5 14H13C15.2091 14 17 12.2091 17 10V9H1V10C1 12.2091 2.79086 14 5 14Z" fill="#515B6D"/>
<path d="M15 8H18V10C18 12.3361 16.3979 14.298 14.2325 14.847L14.9472 16.2764C15.0707 16.5234 14.9706 16.8237 14.7236 16.9472C14.4766 17.0707 14.1763 16.9706 14.0528 16.7236L13.191 15H4.80902L3.94721 16.7236C3.82372 16.9706 3.52338 17.0707 3.27639 16.9472C3.0294 16.8237 2.92929 16.5234 3.05279 16.2764L3.76751 14.847C1.6021 14.298 0 12.3361 0 10V8H14V2.47293C14 1.65945 13.3405 1 12.5271 1C11.7093 1 11.0444 1.6593 11.0375 2.47707L11.0331 3.00421C11.0307 3.28034 10.805 3.50231 10.5289 3.49998C10.2527 3.49766 10.0308 3.27192 10.0331 2.99579L10.0375 2.46865C10.0491 1.1019 11.1603 0 12.5271 0C13.8928 0 15 1.10717 15 2.47293V8ZM5 14H13C15.2091 14 17 12.2091 17 10V9H1V10C1 12.2091 2.79086 14 5 14Z" fill="#5692D9"/>
<path d="M8.49951 4C8.77565 4 8.99951 3.77614 8.99951 3.5C8.99951 3.22386 8.77565 3 8.49951 3C8.22337 3 7.99951 3.22386 7.99951 3.5C7.99951 3.77614 8.22337 4 8.49951 4Z" fill="#515B6D"/>
<path d="M8.49951 4C8.77565 4 8.99951 3.77614 8.99951 3.5C8.99951 3.22386 8.77565 3 8.49951 3C8.22337 3 7.99951 3.22386 7.99951 3.5C7.99951 3.77614 8.22337 4 8.49951 4Z" fill="#5692D9"/>
<path d="M10.5005 4C10.7766 4 11.0005 3.77614 11.0005 3.5C11.0005 3.22386 10.7766 3 10.5005 3C10.2243 3 10.0005 3.22386 10.0005 3.5C10.0005 3.77614 10.2243 4 10.5005 4Z" fill="#515B6D"/>
<path d="M10.5005 4C10.7766 4 11.0005 3.77614 11.0005 3.5C11.0005 3.22386 10.7766 3 10.5005 3C10.2243 3 10.0005 3.22386 10.0005 3.5C10.0005 3.77614 10.2243 4 10.5005 4Z" fill="#5692D9"/>
<path d="M8.49951 6C8.77565 6 8.99951 5.77614 8.99951 5.5C8.99951 5.22386 8.77565 5 8.49951 5C8.22337 5 7.99951 5.22386 7.99951 5.5C7.99951 5.77614 8.22337 6 8.49951 6Z" fill="#515B6D"/>
<path d="M8.49951 6C8.77565 6 8.99951 5.77614 8.99951 5.5C8.99951 5.22386 8.77565 5 8.49951 5C8.22337 5 7.99951 5.22386 7.99951 5.5C7.99951 5.77614 8.22337 6 8.49951 6Z" fill="#5692D9"/>
<path d="M10.5005 6C10.7766 6 11.0005 5.77614 11.0005 5.5C11.0005 5.22386 10.7766 5 10.5005 5C10.2243 5 10.0005 5.22386 10.0005 5.5C10.0005 5.77614 10.2243 6 10.5005 6Z" fill="#515B6D"/>
<path d="M10.5005 6C10.7766 6 11.0005 5.77614 11.0005 5.5C11.0005 5.22386 10.7766 5 10.5005 5C10.2243 5 10.0005 5.22386 10.0005 5.5C10.0005 5.77614 10.2243 6 10.5005 6Z" fill="#5692D9"/>
<path d="M6.49951 6C6.77565 6 6.99951 5.77614 6.99951 5.5C6.99951 5.22386 6.77565 5 6.49951 5C6.22337 5 5.99951 5.22386 5.99951 5.5C5.99951 5.77614 6.22337 6 6.49951 6Z" fill="#515B6D"/>
<path d="M6.49951 6C6.77565 6 6.99951 5.77614 6.99951 5.5C6.99951 5.22386 6.77565 5 6.49951 5C6.22337 5 5.99951 5.22386 5.99951 5.5C5.99951 5.77614 6.22337 6 6.49951 6Z" fill="#5692D9"/>
</svg>
