<svg width="18" height="18" viewBox="0 0 18 18" fill="none" xmlns="http://www.w3.org/2000/svg">
<path d="M14.9988 7.03527C15.3523 7.08571 15.6888 7.18897 16 7.33682V2.5C16 2.22386 15.7761 2 15.5 2H2.5C2.22386 2 2 2.22386 2 2.5V7.33682C2.31121 7.18897 2.6477 7.08571 3.00122 7.03527C3.00041 7.02362 3 7.01186 3 7V5.5C3 4.67157 3.67157 4 4.5 4H7.5C8.32843 4 9 4.67157 9 5.5V7V5.5C9 4.67157 9.67157 4 10.5 4H13.5C14.3284 4 15 4.67157 15 5.5V7C15 7.01186 14.9996 7.02362 14.9988 7.03527ZM14 7V5.5C14 5.22386 13.7761 5 13.5 5H10.5C10.2239 5 10 5.22386 10 5.5V7H14ZM4 7H8V5.5C8 5.22386 7.77614 5 7.5 5H4.5C4.22386 5 4 5.22386 4 5.5V7ZM17 14V16.5C17 16.7761 16.7761 17 16.5 17C16.2239 17 16 16.7761 16 16.5V14H2V16.5C2 16.7761 1.77614 17 1.5 17C1.22386 17 1 16.7761 1 16.5V14H0V10.5C0 9.54635 0.381406 8.68178 1 8.05051V2.5C1 1.67157 1.67157 1 2.5 1H15.5C16.3284 1 17 1.67157 17 2.5V8.04815L17 8.0505C17.6186 8.68177 18 9.54634 18 10.5V14H17ZM17 13V10.5C17 9.11929 15.8807 8 14.5 8H3.5C2.11929 8 1 9.11929 1 10.5V13H17Z" fill="#515B6D"/>
<path d="M14.9988 7.03527C15.3523 7.08571 15.6888 7.18897 16 7.33682V2.5C16 2.22386 15.7761 2 15.5 2H2.5C2.22386 2 2 2.22386 2 2.5V7.33682C2.31121 7.18897 2.6477 7.08571 3.00122 7.03527C3.00041 7.02362 3 7.01186 3 7V5.5C3 4.67157 3.67157 4 4.5 4H7.5C8.32843 4 9 4.67157 9 5.5V7V5.5C9 4.67157 9.67157 4 10.5 4H13.5C14.3284 4 15 4.67157 15 5.5V7C15 7.01186 14.9996 7.02362 14.9988 7.03527ZM14 7V5.5C14 5.22386 13.7761 5 13.5 5H10.5C10.2239 5 10 5.22386 10 5.5V7H14ZM4 7H8V5.5C8 5.22386 7.77614 5 7.5 5H4.5C4.22386 5 4 5.22386 4 5.5V7ZM17 14V16.5C17 16.7761 16.7761 17 16.5 17C16.2239 17 16 16.7761 16 16.5V14H2V16.5C2 16.7761 1.77614 17 1.5 17C1.22386 17 1 16.7761 1 16.5V14H0V10.5C0 9.54635 0.381406 8.68178 1 8.05051V2.5C1 1.67157 1.67157 1 2.5 1H15.5C16.3284 1 17 1.67157 17 2.5V8.04815L17 8.0505C17.6186 8.68177 18 9.54634 18 10.5V14H17ZM17 13V10.5C17 9.11929 15.8807 8 14.5 8H3.5C2.11929 8 1 9.11929 1 10.5V13H17Z" fill="#5692D9"/>
</svg>
